<svg width="478" height="121" viewBox="0 0 478 121" fill="none" xmlns="http://www.w3.org/2000/svg">
<path d="M426.457 0.300439C430.251 0.0751418 437.735 -0.709076 440.751 1.72442C442.772 5.7711 442.06 37.3935 442.062 44.3315L442.043 110.071C439.672 111.974 435.355 114.013 432.455 114.796C416.135 119.198 399.967 120.762 384.624 112.856C358.387 96.6553 357.635 57.7454 381.407 38.7858C392.779 29.7161 408.259 29.8504 422.168 31.9763C422.074 27.2927 421.721 4.8988 422.942 1.41681C424 0.491067 425.024 0.51707 426.457 0.300439ZM401.219 98.8909C408.67 100.061 415.134 99.6535 422.498 98.1501C421.86 94.0196 422.097 85.4266 422.103 80.9379L422.156 50.855C419.006 50.3394 410.276 49.1971 407.214 49.4339C400.31 50.0968 394.624 51.6941 390.178 57.3843C379.521 71.022 383.894 93.3928 401.219 98.8909Z" fill="white"/>
<path d="M118.779 7.52437C123.532 7.06077 130.732 7.3395 135.655 7.31784C150.809 7.22685 166.726 6.98567 179.29 16.971C194.251 28.8626 195.094 55.826 183.175 70.1136C174.917 80.0093 164.102 82.4558 151.819 83.5332C145.906 83.6747 139.699 83.6444 133.766 83.6949C133.997 88.4103 135.362 112.212 132.055 116.356C129.995 118.934 117.671 117.887 113.451 117.4C112.868 111.562 113.019 104.568 113.014 98.6353L113.04 72.1239L113.161 42.2605C113.113 32.6681 112.803 23.0597 113.339 13.4803C113.635 8.20313 113.601 8.1136 118.779 7.52437ZM134.396 64.4609C142.794 64.7065 156.968 65.5167 164.086 60.8446C168.208 57.5851 169.878 54.0525 170.393 48.888C172.642 26.3915 153.662 26.2919 137.426 26.6963C136.35 26.7699 135.011 26.689 134.231 27.3346C133.899 31.5546 134.149 37.5553 134.209 41.9024L134.396 64.4609Z" fill="white"/>
<path d="M230.43 30.2663C240.281 28.5882 253.215 32.7027 260.573 39.3519C269.643 47.3831 273.285 59.0784 273.704 70.8703C273.863 75.3214 274.55 82.5395 268.453 82.7764C261.744 83.0349 255.076 83.0075 248.368 82.9844L215.219 82.9988C216.646 87.1625 217.607 90.0003 220.605 93.3625C228.254 101.828 241.577 101.402 251.577 98.1139C253.402 97.5146 258.694 95.1027 260.169 95.3107C271.754 111.255 265.235 113.571 247.715 117.508C232.595 120.905 214.691 116.477 204.687 103.983C188.627 83.9303 191.948 44.8514 217.628 33.718C222.006 31.8044 225.777 30.9899 230.43 30.2663ZM215.361 66.4424C223.098 67.1905 229.997 66.997 237.747 66.9204L253.763 66.867C250.947 54.8829 246.171 45.9259 231.947 47.9435C221.355 49.8267 216.802 56.0282 215.361 66.4424Z" fill="white"/>
<path d="M313.542 29.5702C325.601 27.6263 341.456 33.0594 348.589 43.2714C357.438 55.9401 355.729 71.6906 355.844 86.2627C355.927 96.921 356.45 106.141 354.797 116.691C349.157 117.54 342.139 117.514 336.494 116.665C334.789 109.663 335.327 102.52 335.405 95.3194L335.529 76.1215C335.577 64.6703 336.397 53.6827 324.078 48.5948C316.617 46.2349 308.823 49.4411 302.158 52.6458C302.89 65.1483 302.492 77.8155 302.623 90.3383C302.716 99.0108 302.525 107.591 301.854 116.242C297.849 117.462 286.383 118.47 283.223 115.582C280.613 110.29 282.008 87.3343 282.088 80.3313C282.225 68.4166 281.831 55.0923 282.413 43.257C289.907 34.8777 302.602 30.6173 313.542 29.5702Z" fill="white"/>
<path d="M459.194 32.0817C463.089 31.5026 470.559 31.9907 474.467 32.4861C476.747 42.8931 475.371 63.5814 475.629 74.7596C475.761 80.4411 476.109 113.271 475.07 115.801C474.057 116.783 473.505 116.769 472.063 117.115C467.745 117.292 461.505 118.233 457.4 116.851C456.633 116.593 456.305 116.409 455.988 115.641C454.598 112.28 454.845 36.1587 455.98 32.8356C457.189 32.0095 457.602 32.2218 459.194 32.0817Z" fill="white"/>
<path d="M63.8034 36.4661C68.4653 30.1662 73.1662 24.0705 78.1808 18.0388C84.4307 10.523 90.6658 7.08446 100.466 7C101.642 7.26544 102.001 7.25243 103.164 7.25058L103.488 18.5603C97.9784 18.7218 91.863 19.5441 88.2063 24.0955C80.0017 34.3083 71.4278 44.9869 63.8544 55.648C62.4021 53.556 54.3409 43.359 53.8535 41.9845C55.6875 40.4216 56.6388 33.7978 56.8281 31.2437C56.9178 30.0335 56.6753 29.136 57.0765 27.9592C58.6236 29.3634 62.5808 34.6517 63.8034 36.4661Z" fill="#FF5E37"/>
<path d="M66.5228 76.3538L66.7001 76.544C68.366 78.3538 71.0761 82.1998 72.6298 84.276L81.4812 95.9264C86.7715 102.968 89.1957 107.736 98.9288 108.31L102.372 108.574C103.104 108.952 103.531 108.982 103.768 109.654C104.635 112.11 102.268 118.128 103.294 119.993C102.754 120.18 102.212 120.373 101.669 120.549C100.456 120.575 99.6305 120.496 98.4276 120.387C97.2601 120.49 96.099 120.305 94.9463 120.203C83.7458 119.23 77.8959 109.722 71.5866 101.745C69.3081 98.8629 66.0884 95.1681 64.2684 92.033C62.4022 94.034 60.8002 96.9556 58.8042 99.1376C58.0963 96.9166 58.9479 93.3221 59.917 91.2506C63.7384 88.0515 64.7111 87.2153 66.1534 82.4319C66.3604 80.146 66.469 78.6527 66.5228 76.3538Z" fill="#FF5E37"/>
<path d="M100.623 108.34C102.045 108.613 103.571 108.446 105 108.438C104.905 111.456 104.928 117.181 104.935 120.359C103.492 120.535 101.946 120.626 100.502 120.47C100.595 120.292 100.688 120.097 100.781 119.907C100.605 118.018 101.012 111.922 100.863 109.434C100.822 108.754 100.749 108.724 100.623 108.34Z" fill="#FF5E37"/>
<path d="M42.5162 63.7493C43.9445 65.5832 48.983 71.9704 49.9635 73.9333C48.5193 74.5236 34.0549 96.5742 30.7864 98.6095C26.1442 101.501 20.8847 96.2522 22.7239 91.027C24.452 86.1174 42.1166 66.09 42.5162 63.7493Z" fill="#FF5E37"/>
<path d="M15.0283 64.025C14.4957 63.4189 13.8992 62.7293 13.4186 62.0797C6.47484 52.7393 -0.954893 44.3447 0.675061 31.7393C2.6667 16.3366 16.5818 5.40368 32.055 7.33133C45.064 8.95178 49.9784 18.5371 57.0736 27.9592C56.6723 29.136 56.9149 30.0335 56.8252 31.2437C56.6359 33.7978 55.6846 40.4216 53.8506 41.9845C49.3607 35.9519 42.331 25.3039 36.7667 20.8667C27.7913 13.7092 12.6715 22.0695 11.932 33.1324C10.62 45.0565 23.994 54.3505 28.8193 64.2765C24.712 70.0307 20.4564 75.5946 16.1211 81.1771C14.5961 83.2941 13.1087 85.4491 12.2153 87.9225C6.86892 102.704 24.9368 116.531 37.4907 106.521C38.5765 105.655 39.9886 104.315 40.8349 103.226C46.0183 96.5603 51.7612 89.7453 56.6424 82.895C54.65 79.9446 52.231 76.6907 49.9632 73.9333C48.9827 71.9704 43.9442 65.5832 42.5159 63.7493C37.6526 57.0132 24.4268 41.5474 22.0419 35.0433C22.9792 31.3941 24.7008 27.7012 29.3674 28.6831C30.7769 28.9801 32.6789 31.5602 33.6818 32.6126C39.9437 40.4031 45.73 48.6835 51.6983 56.7097L61.1073 69.2325C62.7183 71.3411 65.0803 74.2182 66.5226 76.3538C66.4688 78.6527 66.3602 80.146 66.1532 82.4319C64.7109 87.2153 63.7383 88.0515 59.9168 91.2506C58.9477 93.3221 58.0962 96.9167 58.804 99.1376C50.4949 109.081 45.5094 119.559 30.8374 120.815C15.3649 122.309 1.47547 110.877 0.118007 95.3445C-0.853265 84.2305 4.29647 77.1853 10.9489 69.071C12.3074 67.4134 13.6397 65.677 15.0283 64.025Z" fill="#FF5E37"/>
<path d="M98.4861 29.6279C105.219 29.6418 105.661 35.1575 103.344 40.1738C101.357 44.4774 97.1264 49.1476 94.2585 53.0316C91.6895 56.512 88.5552 60.8453 85.6131 63.9553C89.3673 68.1967 101.396 83.6838 103.076 88.6102C103.796 90.7207 104.31 93.8075 103.225 95.8642C102.664 96.925 101.677 97.7231 100.503 97.996C98.9854 98.3496 97.7278 97.4503 96.5017 96.6976C93.0677 94.047 90.6064 90.0794 87.9362 86.7419C82.2088 79.5845 76.7821 70.9634 70.5879 64.3154L84.0817 46.8292C87.2373 42.7409 94.6529 32.0539 98.4861 29.6279Z" fill="#FF5E37"/>
<path d="M462.351 2.85956C468.193 2.19666 477.853 2.55916 477.218 11.0208C476.655 18.5235 477.501 18.9438 469.923 18.9726C464.981 18.9972 459.95 19.0824 455.023 18.8383C454.493 15.5932 453.319 7.3395 455.579 4.67493C457.189 2.77869 460.018 2.96932 462.351 2.85956Z" fill="white"/>
</svg>
